PathFileType	4	(X/Y/Z)	C:\Users\Public\Documents\Vicon Data\AADs Machine\Fixing_spring_distance_56\90_lb_Spring\Brian_90_01.trc
DataRate	CameraRate	NumFrames	NumMarkers	Units	OrigDataRate	OrigDataStartFrame	OrigNumFrames
100.0	100.0	22	8	mm	100.0	1140	1302	
Frame#	Time	SpringTop			MMAL			LMAL			Shank			Heel			Foot			Toe			MP5			
		X1	Y1	Z1	X2	Y2	Z2	X3	Y3	Z3	X4	Y4	Z4	X5	Y5	Z5	X6	Y6	Z6	X7	Y7	Z7	X8	Y8	Z8	
1140	11.39	-358.24435	142.98708	-612.33136	-289.78619	101.25002	-675.08459	-273.66418	111.95836	-553.94415	-223.71857	276.64963	-630.92432	-357.47226	84.501068	-608.94537	-180.13205	57.907207	-615.08618	-105.69929	39.786316	-630.67749	-165.5244	41.581402	-562.64044
1141	11.4	-358.27466	142.93532	-612.3335	-289.80334	101.25945	-675.12897	-273.67227	111.92969	-553.95532	-223.84233	276.69583	-631.0282	-357.45712	84.442963	-608.95245	-180.14519	57.934078	-615.08466	-105.71544	39.854301	-630.65955	-165.55798	41.60067	-562.63739
1142	11.41	-358.40799	142.90372	-612.35394	-289.83704	101.23314	-675.09869	-273.71762	111.95351	-554.00476	-224.03589	276.70541	-631.12482	-357.49582	84.396446	-608.94843	-180.1664	57.939445	-615.11023	-105.70235	39.856846	-630.6864	-165.55989	41.657227	-562.65009
1143	11.42	-358.4538	142.95956	-612.39911	-289.88498	101.25025	-675.16315	-273.75125	111.98201	-554.08667	-224.19502	276.74832	-631.19684	-357.54349	84.432999	-608.98517	-180.18285	57.990479	-615.13531	-105.74905	39.909462	-630.71582	-165.57463	41.716984	-562.67285
1144	11.43	-358.4902	142.90286	-612.42157	-289.89221	101.20915	-675.14862	-273.80606	111.97078	-554.07031	-224.29884	276.7467	-631.21063	-357.52963	84.387184	-609.01428	-180.19821	57.973614	-615.15765	-105.75539	39.905018	-630.698	-165.59177	41.731537	-562.69208
1145	11.44	-358.54544	142.87625	-612.41528	-289.90829	101.15715	-675.13202	-273.82217	111.97388	-554.1134	-224.38181	276.77872	-631.21912	-357.5372	84.340126	-608.9931	-180.20856	57.992294	-615.16199	-105.75835	39.935047	-630.71881	-165.60402	41.728958	-562.69202
1146	11.45	-358.63748	142.81627	-612.40253	-289.9472	101.23474	-675.16809	-273.87265	111.99249	-554.08801	-224.50131	276.8335	-631.22852	-357.62338	84.347206	-608.98615	-180.22296	58.04562	-615.18475	-105.77465	39.988052	-630.71399	-165.62218	41.785172	-562.68842
1147	11.46	-358.64197	142.86096	-612.38812	-289.9386	101.19858	-675.15533	-273.86752	112.00127	-554.12018	-224.57614	276.82736	-631.21466	-357.60315	84.352631	-609.04504	-180.22513	58.040936	-615.17273	-105.7857	39.984638	-630.74847	-165.61929	41.794514	-562.71625
1148	11.47	-358.70074	142.77301	-612.32672	-289.97061	101.23414	-675.15515	-273.89548	111.97248	-554.09796	-224.69644	276.85553	-631.16614	-357.61435	84.313049	-609.00555	-180.22714	58.049152	-615.1637	-105.79723	40.033714	-630.72583	-165.62553	41.786987	-562.71387
1149	11.48	-358.77167	142.74832	-612.35388	-290.02203	101.25333	-675.13483	-273.93372	112.01383	-554.05896	-224.743	276.87006	-631.13489	-357.66559	84.291893	-608.95557	-180.23605	58.082588	-615.17389	-105.80552	40.062851	-630.72284	-165.65631	41.788372	-562.70941
1150	11.49	-358.82623	142.74829	-612.31476	-290.00812	101.25149	-675.09967	-273.91983	112.02198	-554.0813	-224.86285	276.9007	-631.07861	-357.70007	84.333405	-608.96417	-180.23192	58.089512	-615.14197	-105.80042	40.129265	-630.73126	-165.65799	41.849174	-562.70624
1151	11.5	-358.87161	142.68442	-612.20459	-290.0271	101.28484	-675.07532	-273.9379	111.96335	-554.01959	-224.92647	276.89581	-630.99231	-357.67368	84.272766	-608.90118	-180.2175	58.06385	-615.12305	-105.8083	40.129559	-630.70508	-165.64973	41.819859	-562.68677
1152	11.51	-358.88483	142.65681	-612.22491	-290.06436	101.2234	-675.02899	-273.96265	111.98282	-553.9892	-225.03268	276.91956	-630.93945	-357.68015	84.210213	-608.92383	-180.24304	58.059509	-615.11969	-105.82096	40.137188	-630.72015	-165.65596	41.822327	-562.69775
1153	11.52	-358.96896	142.68013	-612.16266	-290.08435	101.28467	-675.00861	-274.01288	111.9368	-553.99536	-225.14409	276.96622	-630.85529	-357.75867	84.260178	-608.92719	-180.26576	58.124031	-615.11609	-105.83514	40.177105	-630.72577	-165.67101	41.878746	-562.70355
1154	11.53	-359.01108	142.66599	-612.07629	-290.08337	101.33878	-674.97565	-274.01993	111.92215	-553.93585	-225.23639	277.02161	-630.75214	-357.76343	84.233131	-608.84515	-180.26489	58.157616	-615.09363	-105.83644	40.249588	-630.68512	-165.67433	41.891037	-562.66595
1155	11.54	-359.08273	142.56494	-612.05756	-290.14719	101.33701	-674.94232	-274.01712	111.93661	-553.8244	-225.4039	277.02969	-630.63519	-357.76462	84.155495	-608.79901	-180.27547	58.144489	-615.08105	-105.86151	40.28138	-630.68597	-165.68845	41.874195	-562.66229
1156	11.55	-359.18451	142.59944	-611.94971	-290.19531	101.39057	-674.8999	-274.04391	111.89668	-553.79364	-225.58028	277.08597	-630.51703	-357.81186	84.150726	-608.7901	-180.31801	58.175953	-615.07617	-105.86496	40.324532	-630.7019	-165.71523	41.878174	-562.66699
1157	11.56	-359.21603	142.62486	-611.85132	-290.1969	101.43806	-674.82483	-274.0697	111.88644	-553.74475	-225.74986	277.1517	-630.37311	-357.83401	84.204163	-608.72565	-180.28087	58.227734	-615.04913	-105.85883	40.404327	-630.67682	-165.70018	41.933311	-562.64117
1158	11.57	-359.25217	142.50459	-611.79913	-290.22681	101.4942	-674.81561	-274.06149	111.83807	-553.68164	-225.85443	277.14047	-630.24683	-357.83813	84.075409	-608.66925	-180.30682	58.203281	-615.03448	-105.87456	40.434265	-630.65564	-165.7014	41.887196	-562.61047
1159	11.58	-359.31049	142.47745	-611.7746	-290.29849	101.47591	-674.77911	-274.12469	111.82917	-553.66437	-225.92622	277.17447	-630.16803	-357.86948	84.072624	-608.68146	-180.33853	58.21278	-615.02551	-105.89593	40.442619	-630.68091	-165.72115	41.881145	-562.65503
1160	11.59	-359.31046	142.52739	-611.67145	-290.27774	101.56185	-674.72711	-274.11047	111.83098	-553.6142	-225.97282	277.22104	-630.04279	-357.87854	84.10025	-608.65112	-180.3315	58.250359	-615.00665	-105.88024	40.517014	-630.67651	-165.71889	41.905617	-562.6225
1161	11.6	-359.31415	142.4895	-611.56134	-290.27579	101.64394	-674.71503	-274.1088	111.76369	-553.56183	-226.03421	277.20673	-629.90417	-357.87378	84.051201	-608.56757	-180.30421	58.256798	-614.98132	-105.88605	40.511589	-630.66028	-165.69957	41.885021	-562.59576
